<svg xmlns="http://www.w3.org/2000/svg" width="12.011" height="12.006" viewBox="0 0 12.011 12.006">
  <g id="Group_23" data-name="Group 23" transform="translate(-1161.995 -756)">
    <g id="edit-svgrepo-com" transform="translate(1161.995 755.913)">
      <g id="Group_13" data-name="Group 13" transform="translate(0 0.087)">
        <g id="Group_12" data-name="Group 12" transform="translate(0 0)">
          <path id="Path_27" data-name="Path 27" d="M83.5,147.5l-5.654,5.657a.42.42,0,1,0,.593.6l5.654-5.654a.421.421,0,0,0,0-.6A.416.416,0,0,0,83.5,147.5Z" transform="translate(-75.819 -143.766)"/>
          <path id="Path_28" data-name="Path 28" d="M301.674,4.786a.419.419,0,0,0,.3-.122l.617-.617a1.826,1.826,0,0,0,0-2.582l-.843-.843a1.828,1.828,0,0,0-2.582,0l-.617.617a.421.421,0,0,0,0,.6l2.832,2.832A.427.427,0,0,0,301.674,4.786Zm-1.916-3.574a.988.988,0,0,1,1.4,0l.843.843a.986.986,0,0,1,0,1.394l-.323.323-2.239-2.239Z" transform="translate(-291.112 -0.087)"/>
          <path id="Path_29" data-name="Path 29" d="M3.989,98.813l5.965-5.965a.421.421,0,0,0-.6-.6L3.5,98.12.91,98.468l.348-2.587,5.6-5.6a.421.421,0,1,0-.6-.6l-5.7,5.7a.417.417,0,0,0-.12.24L0,98.9a.42.42,0,0,0,.416.475.437.437,0,0,0,.056,0l3.273-.441A.393.393,0,0,0,3.989,98.813Z" transform="translate(0 -87.37)"/>
        </g>
      </g>
    </g>
  </g>
</svg>
