<svg id="Group_9" data-name="Group 9" xmlns="http://www.w3.org/2000/svg" xmlns:xlink="http://www.w3.org/1999/xlink" width="200.1" height="167.989" viewBox="0 0 200.1 167.989">
  <defs>
    <clipPath id="clip-path">
      <rect id="Rectangle_5" data-name="Rectangle 5" width="200.1" height="167.989" fill="none"/>
    </clipPath>
  </defs>
  <g id="Group_7" data-name="Group 7" clip-path="url(#clip-path)">
    <path id="Path_17" data-name="Path 17" d="M156.146,87.1h0A43.545,43.545,0,0,1,112.6,43.549V43.54A43.544,43.544,0,0,1,156.146,0h0a43.549,43.549,0,0,1,0,87.1m0-82A38.442,38.442,0,0,0,117.7,43.54v.009A38.486,38.486,0,0,0,156.142,82h0a38.447,38.447,0,0,0,0-76.894Z" transform="translate(-57.363)" fill="#212830"/>
    <path id="Path_18" data-name="Path 18" d="M203.153,73.1a1,1,0,0,0-1.273-.617h0c-5.838,2.038-10.042,2.812-13.379,2.845l.025-5.746,6.353,2.557a1,1,0,0,0,.751-1.86h0l-7.093-2.855.013-3.222,5.539,2.176a1,1,0,1,0,.733-1.866l-6.264-2.46.014-3.142,4.807,2.045a1,1,0,0,0,1.314-.527v0a1,1,0,0,0-.529-1.314h0l-5.582-2.374.01-2.308,3.154,1.5a1,1,0,0,0,.86-1.811l-4-1.9.008-1.887,1.185.563a1,1,0,1,0,.86-1.812l-2.611-1.24-.015,0a1.023,1.023,0,0,0-.214-.071c-.008,0-.017,0-.026,0a1,1,0,0,0-.171-.018h0l-.023,0c-.025,0-.048,0-.073.007a.964.964,0,0,0-.152.025c-.025.006-.048.014-.072.022a.954.954,0,0,0-.143.061c-.013.007-.028.01-.042.018l-3.421,1.989a1,1,0,0,0,1.008,1.734L186.6,50.49l-.007,1.8L182.2,54.838a1,1,0,0,0,1.008,1.734l3.373-1.962-.01,2.281-5.156,3.352-3.532-3.034a1,1,0,0,0-1.275-.026l-5,3.955L169.438,58.6a1,1,0,0,0-1.338-.168l-5.823,4.088a1,1,0,1,0,1.124,1.66l.027-.019,5.078-3.565,1.526,1.784-3.348,2.648a1,1,0,1,0,1.244,1.572l9.274-7.336,2.46,2.113L177.938,62.5a1,1,0,1,0,1.092,1.682l7.531-4.9-.013,2.974-7.484,5.04a1,1,0,1,0,1.12,1.663l6.354-4.278-.013,2.94L183.2,69.7a1,1,0,0,0,1.062,1.7L186.516,70l-.022,5.256a25.226,25.226,0,0,1-8.462-2.534,32.6,32.6,0,0,0-18.34-3.164,1,1,0,0,0-.911,1.086h0a1,1,0,0,0,1.086.911,30.534,30.534,0,0,1,17.358,3c3.206,1.409,6.311,2.775,11.022,2.775,3.584,0,8.1-.792,14.291-2.954A1,1,0,0,0,203.153,73.1Z" transform="translate(-80.887 -24.321)" fill="#212830"/>
    <path id="Path_19" data-name="Path 19" d="M208.894,111.007c-9.858,2.774-13.751,1.223-17.874-.417a26.33,26.33,0,0,0-8.7-2.222,1,1,0,0,0-.134,2,24.621,24.621,0,0,1,8.088,2.083,22.765,22.765,0,0,0,9.258,2.078,36.719,36.719,0,0,0,9.9-1.594,1,1,0,1,0-.542-1.93Z" transform="translate(-92.338 -55.206)" fill="#212830"/>
    <path id="Path_20" data-name="Path 20" d="M192.272,122.065c-8,2.547-13.531.633-19.39-1.393-5.276-1.824-10.733-3.711-18.067-2.243a1,1,0,0,0,.388,1.967h.005c6.8-1.358,11.765.356,17.019,2.173,3.89,1.345,7.866,2.72,12.59,2.719a26.326,26.326,0,0,0,8.063-1.311,1,1,0,0,0-.607-1.912Z" transform="translate(-78.458 -60.065)" fill="#212830"/>
    <path id="Path_21" data-name="Path 21" d="M179.628,47.888a3.821,3.821,0,1,0-3.821-3.82,3.825,3.825,0,0,0,3.821,3.82Zm0-5.637a1.816,1.816,0,1,1-1.816,1.816,1.819,1.819,0,0,1,1.816-1.816Z" transform="translate(-89.563 -20.503)" fill="#212830"/>
    <path id="Path_22" data-name="Path 22" d="M13.746,280.024a6.007,6.007,0,0,0-4.784,1.906A7.945,7.945,0,0,0,7.3,287.322a7.5,7.5,0,0,0,1.845,5.433,6.594,6.594,0,0,0,4.967,1.906,7.853,7.853,0,0,0,2.818-.446,19.455,19.455,0,0,0,2.21-1.014,4.018,4.018,0,0,1,1.074,1.358A4.166,4.166,0,0,1,20.6,296.4a3.321,3.321,0,0,1-1.845,2.818,10.789,10.789,0,0,1-5.616,1.155,16.571,16.571,0,0,1-5.109-.77,11.4,11.4,0,0,1-4.176-2.372,11.191,11.191,0,0,1-2.818-4.055A15.037,15.037,0,0,1,0,287.322a14.556,14.556,0,0,1,.993-5.575,11.838,11.838,0,0,1,2.717-4.075,11.432,11.432,0,0,1,4.034-2.514,14.2,14.2,0,0,1,4.947-.851,11.381,11.381,0,0,1,5.778,1.217,3.58,3.58,0,0,1,2.048,3.122,3.154,3.154,0,0,1-.527,1.825,4.339,4.339,0,0,1-1.217,1.216,13.162,13.162,0,0,0-2.25-1.176A7.337,7.337,0,0,0,13.746,280.024Zm29.559,7.3v12.286a9.4,9.4,0,0,1-1.277.243,13.07,13.07,0,0,1-1.8.122,9.555,9.555,0,0,1-1.6-.122,2.726,2.726,0,0,1-1.2-.487,2.346,2.346,0,0,1-.751-.993,4.313,4.313,0,0,1-.263-1.642v-9a2.838,2.838,0,0,0-.832-2.331,3.161,3.161,0,0,0-2.048-.669,5.738,5.738,0,0,0-1.54.2,4.4,4.4,0,0,0-1.176.487v14.191a9.386,9.386,0,0,1-1.277.243,13.07,13.07,0,0,1-1.8.122,9.547,9.547,0,0,1-1.6-.122,2.726,2.726,0,0,1-1.2-.487,2.345,2.345,0,0,1-.75-.993,4.3,4.3,0,0,1-.263-1.642V273.212q.447-.081,1.318-.223A10.954,10.954,0,0,1,27,272.847a9.555,9.555,0,0,1,1.6.122,2.726,2.726,0,0,1,1.2.487,2.346,2.346,0,0,1,.751.993,4.313,4.313,0,0,1,.263,1.642v3.974a14.411,14.411,0,0,1,1.6-.466,9.962,9.962,0,0,1,2.372-.263,9.086,9.086,0,0,1,6.264,2.007Q43.3,283.349,43.3,287.322ZM56,295.27a9.09,9.09,0,0,0,1.521-.142,3.7,3.7,0,0,0,1.237-.385V291.5l-2.919.243a4.488,4.488,0,0,0-1.866.487,1.31,1.31,0,0,0-.73,1.217,1.614,1.614,0,0,0,.628,1.318A3.442,3.442,0,0,0,56,295.27Zm-.324-15.935a16.651,16.651,0,0,1,3.994.446,8.951,8.951,0,0,1,3.082,1.358,6.133,6.133,0,0,1,1.966,2.311,7.4,7.4,0,0,1,.69,3.3v9.082a2.515,2.515,0,0,1-.588,1.723,5.856,5.856,0,0,1-1.4,1.156A14.49,14.49,0,0,1,56,300.3a16.953,16.953,0,0,1-3.872-.405,9.2,9.2,0,0,1-2.96-1.217,5.584,5.584,0,0,1-1.905-2.068,6.126,6.126,0,0,1-.669-2.92,5.49,5.49,0,0,1,1.663-4.3,8.959,8.959,0,0,1,5.149-1.866l5.312-.568v-.284a1.738,1.738,0,0,0-1.034-1.683,6.957,6.957,0,0,0-2.98-.507,13.788,13.788,0,0,0-3,.324,15.97,15.97,0,0,0-2.635.811,2.809,2.809,0,0,1-.892-1.115,3.531,3.531,0,0,1-.364-1.561,2.6,2.6,0,0,1,.507-1.683,3.923,3.923,0,0,1,1.561-1.074,12.143,12.143,0,0,1,2.778-.649A24.158,24.158,0,0,1,55.671,279.335Zm20.963-3.244v23.518q-.447.081-1.318.223a10.954,10.954,0,0,1-1.764.142,9.555,9.555,0,0,1-1.6-.122,2.726,2.726,0,0,1-1.2-.487,2.346,2.346,0,0,1-.751-.993,4.313,4.313,0,0,1-.263-1.642V273.212q.446-.081,1.318-.223a10.953,10.953,0,0,1,1.764-.142,9.547,9.547,0,0,1,1.6.122,2.726,2.726,0,0,1,1.2.487,2.345,2.345,0,0,1,.75.993A4.3,4.3,0,0,1,76.634,276.091Zm11.353,0v23.518q-.447.081-1.318.223a10.954,10.954,0,0,1-1.764.142,9.545,9.545,0,0,1-1.6-.122,2.726,2.726,0,0,1-1.2-.487,2.341,2.341,0,0,1-.75-.993,4.3,4.3,0,0,1-.263-1.642V273.212q.447-.081,1.318-.223a10.954,10.954,0,0,1,1.764-.142,9.545,9.545,0,0,1,1.6.122,2.726,2.726,0,0,1,1.2.487,2.341,2.341,0,0,1,.75.993A4.3,4.3,0,0,1,87.987,276.091ZM102.746,300.3a14.221,14.221,0,0,1-4.44-.669,10.057,10.057,0,0,1-3.568-2.007,9.3,9.3,0,0,1-2.392-3.365,11.933,11.933,0,0,1-.872-4.744,11.1,11.1,0,0,1,.872-4.6,8.907,8.907,0,0,1,5.535-4.988,12.092,12.092,0,0,1,3.73-.588,11.271,11.271,0,0,1,3.913.649,9.417,9.417,0,0,1,3.041,1.784,7.95,7.95,0,0,1,1.987,2.717,8.324,8.324,0,0,1,.709,3.447,2.767,2.767,0,0,1-.77,2.108,3.854,3.854,0,0,1-2.149.932l-10.015,1.5a3.37,3.37,0,0,0,1.825,2.007,7.157,7.157,0,0,0,3.163.669,11.3,11.3,0,0,0,3.142-.426,10.006,10.006,0,0,0,2.413-.993,3.4,3.4,0,0,1,1.095,1.135,2.977,2.977,0,0,1-1.257,4.258,9.028,9.028,0,0,1-2.92.933A20.532,20.532,0,0,1,102.746,300.3Zm-1.135-15.935a4.015,4.015,0,0,0-1.683.324,3.385,3.385,0,0,0-1.156.831,3.454,3.454,0,0,0-.669,1.135,4.674,4.674,0,0,0-.263,1.277l6.934-1.136a3.062,3.062,0,0,0-.892-1.622,2.987,2.987,0,0,0-2.271-.811m25.464,12.367V287.16a2.26,2.26,0,0,0-.709-1.844,2.927,2.927,0,0,0-1.926-.589,6.409,6.409,0,0,0-1.6.2,4.037,4.037,0,0,0-1.359.608v14.07a9.386,9.386,0,0,1-1.277.243,13.07,13.07,0,0,1-1.8.122,9.555,9.555,0,0,1-1.6-.122,2.726,2.726,0,0,1-1.2-.487,2.346,2.346,0,0,1-.751-.993,4.3,4.3,0,0,1-.263-1.642V284.565a3.124,3.124,0,0,1,.467-1.784,4.9,4.9,0,0,1,1.277-1.257,11.6,11.6,0,0,1,3.467-1.581,16.561,16.561,0,0,1,4.642-.608q4.582,0,7.055,2.007a6.783,6.783,0,0,1,2.473,5.575v12.691a9.386,9.386,0,0,1-1.277.243,13.07,13.07,0,0,1-1.8.122,9.547,9.547,0,0,1-1.6-.122,2.726,2.726,0,0,1-1.2-.487,2.345,2.345,0,0,1-.75-.993A4.3,4.3,0,0,1,127.075,296.729Zm20.761-17.4a14.043,14.043,0,0,1,4.2.589,11.065,11.065,0,0,1,3.183,1.52,4.918,4.918,0,0,1,1.277,1.257,3.127,3.127,0,0,1,.466,1.784v14.191a7.953,7.953,0,0,1-.811,3.71,7.458,7.458,0,0,1-2.209,2.6,9.429,9.429,0,0,1-3.284,1.521,16.107,16.107,0,0,1-4.035.486,13.853,13.853,0,0,1-5.8-.993,3.342,3.342,0,0,1-2.108-3.223,3.391,3.391,0,0,1,.385-1.642,3.245,3.245,0,0,1,.872-1.074,13.611,13.611,0,0,0,2.656,1.094,10.535,10.535,0,0,0,3.061.446,7.115,7.115,0,0,0,3.487-.73,2.5,2.5,0,0,0,1.3-2.352v-.649a10.069,10.069,0,0,1-4.055.73,10.887,10.887,0,0,1-3.467-.547,7.756,7.756,0,0,1-2.879-1.7,8.342,8.342,0,0,1-1.987-2.98,11.374,11.374,0,0,1-.751-4.339,10.742,10.742,0,0,1,.791-4.3,8.185,8.185,0,0,1,2.19-3.021,9.164,9.164,0,0,1,3.325-1.784,14.315,14.315,0,0,1,4.2-.588Zm2.514,13.34v-7.46a4.122,4.122,0,0,0-.832-.325,4.862,4.862,0,0,0-1.358-.162,3.786,3.786,0,0,0-2.98,1.115,4.629,4.629,0,0,0-.993,3.183,4.781,4.781,0,0,0,.993,3.386,3.362,3.362,0,0,0,2.534,1.034,4.134,4.134,0,0,0,2.636-.77Zm21.287,7.623a14.206,14.206,0,0,1-4.44-.67,10.057,10.057,0,0,1-3.568-2.007,9.3,9.3,0,0,1-2.392-3.365,11.933,11.933,0,0,1-.872-4.744,11.1,11.1,0,0,1,.872-4.6,8.907,8.907,0,0,1,5.535-4.988,12.092,12.092,0,0,1,3.73-.588,11.271,11.271,0,0,1,3.913.649,9.417,9.417,0,0,1,3.041,1.784,7.95,7.95,0,0,1,1.987,2.717,8.324,8.324,0,0,1,.709,3.447,2.767,2.767,0,0,1-.77,2.108,3.854,3.854,0,0,1-2.149.932l-10.015,1.5a3.37,3.37,0,0,0,1.825,2.007,7.156,7.156,0,0,0,3.162.669,11.305,11.305,0,0,0,3.143-.426,10.006,10.006,0,0,0,2.413-.993,3.4,3.4,0,0,1,1.095,1.135,2.977,2.977,0,0,1-1.257,4.258,9.028,9.028,0,0,1-2.92.933,20.532,20.532,0,0,1-3.041.243ZM170.5,284.362a4.015,4.015,0,0,0-1.683.324,3.384,3.384,0,0,0-1.156.831,3.453,3.453,0,0,0-.669,1.135,4.674,4.674,0,0,0-.263,1.277l6.934-1.136a3.062,3.062,0,0,0-.892-1.622A2.987,2.987,0,0,0,170.5,284.362Zm29.6,9.407a5.706,5.706,0,0,1-2.312,4.825q-2.311,1.743-6.812,1.743a19.248,19.248,0,0,1-3.163-.243,9.054,9.054,0,0,1-2.494-.751,4.459,4.459,0,0,1-1.622-1.277,2.921,2.921,0,0,1-.588-1.825,3.114,3.114,0,0,1,.405-1.642,4.109,4.109,0,0,1,.973-1.115,16.164,16.164,0,0,0,2.7,1.156,11.086,11.086,0,0,0,3.508.507,4.1,4.1,0,0,0,1.926-.365,1.093,1.093,0,0,0,.669-.973,1.018,1.018,0,0,0-.487-.892,4.5,4.5,0,0,0-1.622-.527l-1.217-.243a11.394,11.394,0,0,1-5.251-2.169,5.282,5.282,0,0,1-1.723-4.237A5.593,5.593,0,0,1,185.463,281a9.149,9.149,0,0,1,2.818-1.257,13.828,13.828,0,0,1,3.629-.446,16.9,16.9,0,0,1,2.818.223,9.16,9.16,0,0,1,2.291.669,4.128,4.128,0,0,1,1.54,1.155,2.611,2.611,0,0,1,.568,1.683,3.455,3.455,0,0,1-.345,1.6,3.59,3.59,0,0,1-.872,1.115,4.964,4.964,0,0,0-.973-.426q-.649-.223-1.419-.405t-1.561-.3a9.563,9.563,0,0,0-1.44-.122,5.563,5.563,0,0,0-2.068.3,1.008,1.008,0,0,0-.73.953.857.857,0,0,0,.406.73,4.644,4.644,0,0,0,1.54.527l1.257.285a11.954,11.954,0,0,1,5.535,2.453A5.316,5.316,0,0,1,200.1,293.769Z" transform="translate(0 -138.999)" fill="#212830"/>
    <path id="Path_23" data-name="Path 23" d="M123.021,194.854v21.409a11.28,11.28,0,0,1-1.4.243,14.907,14.907,0,0,1-1.885.122,8.436,8.436,0,0,1-1.642-.142,2.916,2.916,0,0,1-1.2-.507,2.194,2.194,0,0,1-.73-1.014,4.954,4.954,0,0,1-.243-1.7v-6.325H108.14v9.326a11.168,11.168,0,0,1-1.4.244,14.907,14.907,0,0,1-1.885.122,8.445,8.445,0,0,1-1.642-.142,2.917,2.917,0,0,1-1.2-.507,2.194,2.194,0,0,1-.73-1.014,4.941,4.941,0,0,1-.243-1.7V191.854q.447-.081,1.419-.223a12.927,12.927,0,0,1,1.865-.142,8.445,8.445,0,0,1,1.642.142,2.923,2.923,0,0,1,1.2.506,2.193,2.193,0,0,1,.73,1.014,4.936,4.936,0,0,1,.243,1.7v6.488h7.785v-9.488q.446-.081,1.419-.223a12.928,12.928,0,0,1,1.866-.142,8.44,8.44,0,0,1,1.642.142,2.923,2.923,0,0,1,1.2.506,2.193,2.193,0,0,1,.73,1.014A4.936,4.936,0,0,1,123.021,194.854Zm4.582-3.609a3.564,3.564,0,0,1,1.034-2.6,4.079,4.079,0,0,1,5.474,0,3.773,3.773,0,0,1,0,5.19,4.08,4.08,0,0,1-5.474,0A3.564,3.564,0,0,1,127.6,191.245Zm7.217,8.636v16.5q-.446.082-1.318.223a10.951,10.951,0,0,1-1.764.142,9.547,9.547,0,0,1-1.6-.122,2.723,2.723,0,0,1-1.2-.487,2.346,2.346,0,0,1-.751-.993,4.3,4.3,0,0,1-.263-1.642V197q.447-.081,1.318-.223a10.959,10.959,0,0,1,1.764-.142,9.559,9.559,0,0,1,1.6.122,2.726,2.726,0,0,1,1.2.487,2.346,2.346,0,0,1,.751.993A4.313,4.313,0,0,1,134.82,199.882Zm17.151,6.488,6.488,6.488a5.055,5.055,0,0,1-1.115,2.919,3.391,3.391,0,0,1-2.656,1.013,4.3,4.3,0,0,1-2.311-.628,9.058,9.058,0,0,1-2.189-2.129L146.173,209v7.38q-.447.081-1.318.223a10.951,10.951,0,0,1-1.764.142,9.555,9.555,0,0,1-1.6-.122,2.725,2.725,0,0,1-1.2-.487,2.346,2.346,0,0,1-.751-.993,4.3,4.3,0,0,1-.263-1.642V190.029q.447-.121,1.318-.263a10.951,10.951,0,0,1,1.764-.142,9.494,9.494,0,0,1,1.6.122,2.723,2.723,0,0,1,1.2.487,2.346,2.346,0,0,1,.751.993,4.3,4.3,0,0,1,.263,1.642v10.7l6.974-7.136a5.616,5.616,0,0,1,3.386.932,2.811,2.811,0,0,1,1.277,2.352,2.971,2.971,0,0,1-.2,1.115,4.079,4.079,0,0,1-.628,1.034,9.337,9.337,0,0,1-1.1,1.115q-.669.588-1.561,1.358Zm19.26,10.7a14.221,14.221,0,0,1-4.44-.669,10.06,10.06,0,0,1-3.568-2.007,9.3,9.3,0,0,1-2.392-3.365,11.933,11.933,0,0,1-.872-4.744,11.092,11.092,0,0,1,.872-4.6,8.907,8.907,0,0,1,5.535-4.988,12.092,12.092,0,0,1,3.73-.588,11.271,11.271,0,0,1,3.913.649,9.418,9.418,0,0,1,3.041,1.784,7.95,7.95,0,0,1,1.987,2.717,8.322,8.322,0,0,1,.709,3.446,2.767,2.767,0,0,1-.77,2.108,3.851,3.851,0,0,1-2.149.933l-10.015,1.5a3.37,3.37,0,0,0,1.825,2.007,7.156,7.156,0,0,0,3.162.669,11.306,11.306,0,0,0,3.143-.426,10.006,10.006,0,0,0,2.413-.993,3.392,3.392,0,0,1,1.095,1.135,2.976,2.976,0,0,1-1.257,4.258,9.029,9.029,0,0,1-2.919.933A20.543,20.543,0,0,1,171.231,217.074ZM170.1,201.139a4.016,4.016,0,0,0-1.683.324,3.384,3.384,0,0,0-1.156.831,3.447,3.447,0,0,0-.669,1.136,4.667,4.667,0,0,0-.263,1.277l6.934-1.135a3.062,3.062,0,0,0-.892-1.622,2.988,2.988,0,0,0-2.271-.811Zm29.6,9.407a5.706,5.706,0,0,1-2.312,4.825q-2.311,1.744-6.812,1.744a19.248,19.248,0,0,1-3.163-.243,9.054,9.054,0,0,1-2.493-.751,4.463,4.463,0,0,1-1.622-1.277,2.921,2.921,0,0,1-.588-1.825,3.114,3.114,0,0,1,.406-1.642,4.109,4.109,0,0,1,.973-1.115,16.206,16.206,0,0,0,2.7,1.156,11.087,11.087,0,0,0,3.508.507,4.1,4.1,0,0,0,1.926-.365,1.093,1.093,0,0,0,.669-.973,1.018,1.018,0,0,0-.487-.892,4.508,4.508,0,0,0-1.622-.527l-1.217-.243a11.394,11.394,0,0,1-5.251-2.169,5.279,5.279,0,0,1-1.723-4.237,5.6,5.6,0,0,1,2.474-4.744,9.137,9.137,0,0,1,2.818-1.257,13.828,13.828,0,0,1,3.629-.446,16.9,16.9,0,0,1,2.818.223,9.182,9.182,0,0,1,2.291.669,4.134,4.134,0,0,1,1.54,1.156,2.609,2.609,0,0,1,.568,1.683,3.455,3.455,0,0,1-.345,1.6,3.59,3.59,0,0,1-.872,1.115,4.964,4.964,0,0,0-.973-.426q-.649-.223-1.419-.405t-1.561-.3a9.55,9.55,0,0,0-1.439-.122,5.563,5.563,0,0,0-2.068.3,1.008,1.008,0,0,0-.73.953.857.857,0,0,0,.406.73,4.667,4.667,0,0,0,1.54.527l1.257.284a11.964,11.964,0,0,1,5.535,2.453A5.318,5.318,0,0,1,199.7,210.546Z" transform="translate(-51.476 -95.569)" fill="#212830"/>
  </g>
</svg>
