<svg xmlns="http://www.w3.org/2000/svg" width="40" height="40" viewBox="0 0 40 40">
  <g id="Group_24" data-name="Group 24" transform="translate(-1203 -57)">
    <g id="user-svgrepo-com" transform="translate(1203 57)">
      <g id="Group_10" data-name="Group 10">
        <path id="Path_24" data-name="Path 24" d="M34.143,5.857A20,20,0,0,0,5.857,34.143,20,20,0,0,0,34.143,5.857ZM20,37.791A17.791,17.791,0,1,1,37.791,20,17.815,17.815,0,0,1,20,37.791Z"/>
        <path id="Path_25" data-name="Path 25" d="M185.79,85.687a4.894,4.894,0,1,0-4.89-4.9A4.9,4.9,0,0,0,185.79,85.687Zm0-7.711a2.814,2.814,0,1,1-2.814,2.814A2.815,2.815,0,0,1,185.79,77.976Z" transform="translate(-165.79 -69.56)"/>
        <path id="Path_26" data-name="Path 26" d="M135.973,234.806a10.993,10.993,0,0,0-16.636,0,15.242,15.242,0,0,0-2.709,7.588,1.069,1.069,0,0,0,1.035,1.138,1.132,1.132,0,0,0,1.277-.923c.733-6.327,3.667-9.533,8.715-9.533s7.981,3.206,8.715,9.533a1.126,1.126,0,0,0,1.156.93.639.639,0,0,0,.121-.008,1.073,1.073,0,0,0,1.035-1.138A15.214,15.214,0,0,0,135.973,234.806Z" transform="translate(-107.655 -211.536)"/>
      </g>
    </g>
  </g>
</svg>
